<?xml version="1.0" standalone="no"?><svg xmlns:xlink="http://www.w3.org/1999/xlink" xmlns="http://www.w3.org/2000/svg" viewBox="0 0 1000 687.4936811242543" preserveAspectRatio="xMaxYMax slice"><g transform="scale(0.842516766083645)"><rect x="0" y="0" width="1261.0909090909092" height="816" fill="#ffffff"/><rect x="0" y="0" width="74.18181818181819" height="74.18181818181819" fill="#ffffff"/><g transform="translate(0,0) scale(1.8545000000000003) rotate(0)"><rect width="20" height="10" fill="#1d9ae2"/></g><rect x="0" y="37.09" width="37.09" height="37.09" fill="#1d9ae2"/><rect x="148.36363636363637" y="0" width="74.18181818181819" height="74.18181818181819" fill="#ffffff"/><g transform="translate(148.36,0) scale(1.8545000000000003) rotate(0)"><rect width="20" height="10" fill="#1d9ae2"/></g><rect x="296.72727272727275" y="0" width="74.18181818181819" height="74.18181818181819" fill="#ffffff"/><rect x="964.3636363636365" y="0" width="74.18181818181819" height="74.18181818181819" fill="#ffffff"/><rect x="1186.909090909091" y="0" width="74.18181818181819" height="74.18181818181819" fill="#ffffff"/><rect x="148.36363636363637" y="74.18181818181819" width="74.18181818181819" height="74.18181818181819" fill="#ffffff"/><rect x="222.54545454545456" y="74.18181818181819" width="74.18181818181819" height="74.18181818181819" fill="#ffffff"/><path d="M 222.55 148.36 A 37.09 37.09 0 0 1  259.64 111.27 L 222.55 148.36 A 37.09 37.09 0 0 0 259.64 111.27" fill="#1d9ae2"/><rect x="593.4545454545455" y="74.18181818181819" width="74.18181818181819" height="74.18181818181819" fill="#ffffff"/><g transform="translate(630.55,111.27) scale(1.8545000000000003) rotate(0)"><rect width="20" height="10" fill="#1d9ae2"/></g><rect x="741.8181818181819" y="74.18181818181819" width="74.18181818181819" height="74.18181818181819" fill="#ffffff"/><rect x="816" y="74.18181818181819" width="74.18181818181819" height="74.18181818181819" fill="#ffffff"/><circle cx="871.635" cy="92.72500000000001" r="18.545" fill="#f9733e"/><rect x="148.36363636363637" y="148.36363636363637" width="74.18181818181819" height="74.18181818181819" fill="#ffffff"/><rect x="185.45" y="148.36" width="37.09" height="37.09" fill="#1d9ae2"/><rect x="148.36" y="185.45" width="37.09" height="37.09" fill="#f9733e"/><rect x="296.72727272727275" y="148.36363636363637" width="74.18181818181819" height="74.18181818181819" fill="#ffffff"/><circle cx="315.27500000000003" cy="166.90500000000003" r="18.545" fill="#1d9ae2"/><rect x="445.0909090909091" y="148.36363636363637" width="74.18181818181819" height="74.18181818181819" fill="#ffffff"/><rect x="445.09" y="148.36" width="37.09" height="37.09" fill="#f9733e"/><circle cx="463.635" cy="203.995" r="18.545" fill="#1d9ae2"/><rect x="816" y="148.36363636363637" width="74.18181818181819" height="74.18181818181819" fill="#ffffff"/><path d="M 853.09 185.45000000000002 A 37.09 37.09 0 0 1  890.1800000000001 148.36 L 890.1800000000001 185.45000000000002" fill="#f9733e"/><rect x="853.09" y="185.45" width="37.09" height="37.09" fill="#f9733e"/><rect x="890.1818181818182" y="148.36363636363637" width="74.18181818181819" height="74.18181818181819" fill="#ffffff"/><rect x="1112.7272727272727" y="148.36363636363637" width="74.18181818181819" height="74.18181818181819" fill="#ffffff"/><rect x="1186.909090909091" y="148.36363636363637" width="74.18181818181819" height="74.18181818181819" fill="#ffffff"/><rect x="74.18181818181819" y="222.54545454545456" width="74.18181818181819" height="74.18181818181819" fill="#ffffff"/><rect x="74.18" y="222.55" width="37.09" height="37.09" fill="#1d9ae2"/><g transform="translate(111.27,222.55) scale(1.8545000000000003) rotate(0)"><rect width="20" height="10" fill="#1d9ae2"/></g><rect x="74.18" y="259.64" width="37.09" height="37.09" fill="#1d9ae2"/><rect x="111.27" y="259.64" width="37.09" height="37.09" fill="#1d9ae2"/><rect x="148.36363636363637" y="222.54545454545456" width="74.18181818181819" height="74.18181818181819" fill="#ffffff"/><g transform="translate(185.45,259.64) scale(1.8545000000000003) rotate(0)"><rect width="20" height="10" fill="#1d9ae2"/></g><rect x="667.6363636363637" y="222.54545454545456" width="74.18181818181819" height="74.18181818181819" fill="#ffffff"/><path d="M 704.73 296.73 A 37.09 37.09 0 0 1  741.82 259.64 L 704.73 296.73 A 37.09 37.09 0 0 0 741.82 259.64" fill="#1d9ae2"/><rect x="964.3636363636365" y="222.54545454545456" width="74.18181818181819" height="74.18181818181819" fill="#ffffff"/><rect x="1186.909090909091" y="222.54545454545456" width="74.18181818181819" height="74.18181818181819" fill="#ffffff"/><rect x="0" y="296.72727272727275" width="74.18181818181819" height="74.18181818181819" fill="#ffffff"/><rect x="222.54545454545456" y="296.72727272727275" width="74.18181818181819" height="74.18181818181819" fill="#ffffff"/><rect x="222.55" y="333.82" width="37.09" height="37.09" fill="#f9733e"/><rect x="296.72727272727275" y="296.72727272727275" width="74.18181818181819" height="74.18181818181819" fill="#ffffff"/><rect x="445.0909090909091" y="296.72727272727275" width="74.18181818181819" height="74.18181818181819" fill="#ffffff"/><rect x="445.09" y="333.82" width="37.09" height="37.09" fill="#1d9ae2"/><rect x="741.8181818181819" y="296.72727272727275" width="74.18181818181819" height="74.18181818181819" fill="#ffffff"/><rect x="890.1818181818182" y="296.72727272727275" width="74.18181818181819" height="74.18181818181819" fill="#ffffff"/><g transform="translate(890.18,296.73) scale(1.8545000000000003) rotate(0)"><rect width="20" height="10" fill="#1d9ae2"/></g><path d="M 927.27 370.90999999999997 A 37.09 37.09 0 0 0 964.36 333.82 L 927.27 333.82" fill="#f9733e"/><rect x="964.3636363636365" y="296.72727272727275" width="74.18181818181819" height="74.18181818181819" fill="#ffffff"/><path d="M 1001.45 370.90999999999997 A 37.09 37.09 0 0 1  1038.54 333.82 L 1001.45 370.90999999999997 A 37.09 37.09 0 0 0 1038.54 333.82" fill="#f9733e"/><rect x="1112.7272727272727" y="296.72727272727275" width="74.18181818181819" height="74.18181818181819" fill="#ffffff"/><rect x="0" y="370.90909090909093" width="74.18181818181819" height="74.18181818181819" fill="#ffffff"/><g transform="translate(0,408) scale(1.8545000000000003) rotate(0)"><rect width="20" height="10" fill="#1d9ae2"/></g><circle cx="55.635000000000005" cy="426.545" r="18.545" fill="#1d9ae2"/><rect x="74.18181818181819" y="370.90909090909093" width="74.18181818181819" height="74.18181818181819" fill="#ffffff"/><rect x="519.2727272727273" y="370.90909090909093" width="74.18181818181819" height="74.18181818181819" fill="#ffffff"/><g transform="translate(556.36,370.91) scale(1.8545000000000003) rotate(0)"><rect width="20" height="10" fill="#1d9ae2"/></g><rect x="741.8181818181819" y="370.90909090909093" width="74.18181818181819" height="74.18181818181819" fill="#ffffff"/><circle cx="760.365" cy="426.545" r="18.545" fill="#f9733e"/><path d="M 778.91 445.09000000000003 A 37.09 37.09 0 0 0 816 408 L 778.91 408" fill="#1d9ae2"/><rect x="964.3636363636365" y="370.90909090909093" width="74.18181818181819" height="74.18181818181819" fill="#ffffff"/><rect x="296.72727272727275" y="445.0909090909091" width="74.18181818181819" height="74.18181818181819" fill="#ffffff"/><rect x="296.73" y="445.09" width="37.09" height="37.09" fill="#f9733e"/><circle cx="352.365" cy="500.725" r="18.545" fill="#1d9ae2"/><rect x="519.2727272727273" y="445.0909090909091" width="74.18181818181819" height="74.18181818181819" fill="#ffffff"/><circle cx="537.8149999999999" cy="463.635" r="18.545" fill="#1d9ae2"/><circle cx="574.905" cy="463.635" r="18.545" fill="#f9733e"/><g transform="translate(519.27,482.18) scale(1.8545000000000003) rotate(0)"><rect width="20" height="10" fill="#1d9ae2"/></g><rect x="964.3636363636365" y="445.0909090909091" width="74.18181818181819" height="74.18181818181819" fill="#ffffff"/><g transform="translate(964.36,482.18) scale(1.8545000000000003) rotate(0)"><rect width="20" height="10" fill="#1d9ae2"/></g><rect x="74.18181818181819" y="519.2727272727273" width="74.18181818181819" height="74.18181818181819" fill="#ffffff"/><path d="M 74.18 519.27 A 37.09 37.09 0 0 0 111.27000000000001 556.36 L 111.27000000000001 519.27" fill="#1d9ae2"/><rect x="111.27" y="519.27" width="37.09" height="37.09" fill="#f9733e"/><rect x="222.54545454545456" y="519.2727272727273" width="74.18181818181819" height="74.18181818181819" fill="#ffffff"/><path d="M 259.64 556.36 A 37.09 37.09 0 0 1  296.73 519.27 L 259.64 556.36 A 37.09 37.09 0 0 0 296.73 519.27" fill="#1d9ae2"/><rect x="519.2727272727273" y="519.2727272727273" width="74.18181818181819" height="74.18181818181819" fill="#ffffff"/><rect x="556.36" y="519.27" width="37.09" height="37.09" fill="#1d9ae2"/><rect x="667.6363636363637" y="519.2727272727273" width="74.18181818181819" height="74.18181818181819" fill="#ffffff"/><path d="M 667.64 519.27 A 37.09 37.09 0 0 1 704.73 556.36 L 667.64 556.36" fill="#1d9ae2"/><circle cx="723.275" cy="537.8149999999999" r="18.545" fill="#1d9ae2"/><rect x="667.64" y="556.36" width="37.09" height="37.09" fill="#1d9ae2"/><rect x="704.73" y="556.36" width="37.09" height="37.09" fill="#f9733e"/><rect x="741.8181818181819" y="519.2727272727273" width="74.18181818181819" height="74.18181818181819" fill="#ffffff"/><path d="M 778.91 556.36 A 37.09 37.09 0 0 1 816 593.45 L 778.91 593.45" fill="#f9733e"/><rect x="1112.7272727272727" y="519.2727272727273" width="74.18181818181819" height="74.18181818181819" fill="#ffffff"/><g transform="translate(1149.82,519.27) scale(1.8545000000000003) rotate(0)"><rect width="20" height="10" fill="#f9733e"/></g><rect x="1186.909090909091" y="519.2727272727273" width="74.18181818181819" height="74.18181818181819" fill="#ffffff"/><g transform="translate(1186.91,519.27) scale(1.8545000000000003) rotate(0)"><rect width="20" height="10" fill="#1d9ae2"/></g><path d="M 1224 556.36 A 37.09 37.09 0 0 1  1261.09 519.27 L 1261.09 556.36" fill="#1d9ae2"/><rect x="0" y="593.4545454545455" width="74.18181818181819" height="74.18181818181819" fill="#ffffff"/><rect x="37.09" y="630.55" width="37.09" height="37.09" fill="#1d9ae2"/><rect x="148.36363636363637" y="593.4545454545455" width="74.18181818181819" height="74.18181818181819" fill="#ffffff"/><rect x="148.36" y="593.45" width="37.09" height="37.09" fill="#f9733e"/><circle cx="166.90500000000003" cy="649.0949999999999" r="18.545" fill="#f9733e"/><rect x="185.45" y="630.55" width="37.09" height="37.09" fill="#1d9ae2"/><rect x="222.54545454545456" y="593.4545454545455" width="74.18181818181819" height="74.18181818181819" fill="#ffffff"/><rect x="445.0909090909091" y="593.4545454545455" width="74.18181818181819" height="74.18181818181819" fill="#ffffff"/><path d="M 482.18 630.55 A 37.09 37.09 0 0 0 519.27 667.64 L 519.27 630.55" fill="#f9733e"/><rect x="593.4545454545455" y="593.4545454545455" width="74.18181818181819" height="74.18181818181819" fill="#ffffff"/><rect x="593.45" y="593.45" width="37.09" height="37.09" fill="#1d9ae2"/><circle cx="649.0949999999999" cy="649.0949999999999" r="18.545" fill="#1d9ae2"/><rect x="667.6363636363637" y="593.4545454545455" width="74.18181818181819" height="74.18181818181819" fill="#ffffff"/><circle cx="723.275" cy="611.995" r="18.545" fill="#1d9ae2"/><rect x="964.3636363636365" y="593.4545454545455" width="74.18181818181819" height="74.18181818181819" fill="#ffffff"/><rect x="964.36" y="593.45" width="37.09" height="37.09" fill="#1d9ae2"/><rect x="74.18181818181819" y="667.6363636363637" width="74.18181818181819" height="74.18181818181819" fill="#ffffff"/><path d="M 111.27 667.64 A 37.09 37.09 0 0 1  148.36 704.73 L 111.27 667.64 A 37.09 37.09 0 0 0 148.36 704.73" fill="#1d9ae2"/><g transform="translate(74.18,704.73) scale(1.8545000000000003) rotate(0)"><rect width="20" height="10" fill="#f9733e"/></g><rect x="222.54545454545456" y="667.6363636363637" width="74.18181818181819" height="74.18181818181819" fill="#ffffff"/><rect x="296.72727272727275" y="667.6363636363637" width="74.18181818181819" height="74.18181818181819" fill="#ffffff"/><rect x="370.90909090909093" y="667.6363636363637" width="74.18181818181819" height="74.18181818181819" fill="#ffffff"/><g transform="translate(408,704.73) scale(1.8545000000000003) rotate(0)"><rect width="20" height="10" fill="#1d9ae2"/></g><rect x="741.8181818181819" y="667.6363636363637" width="74.18181818181819" height="74.18181818181819" fill="#ffffff"/><circle cx="797.4549999999999" cy="686.185" r="18.545" fill="#f9733e"/><path d="M 778.91 704.73 A 37.09 37.09 0 0 1  816 741.82 L 778.91 704.73 A 37.09 37.09 0 0 0 816 741.82" fill="#1d9ae2"/><rect x="816" y="667.6363636363637" width="74.18181818181819" height="74.18181818181819" fill="#ffffff"/><circle cx="871.635" cy="686.185" r="18.545" fill="#f9733e"/><rect x="890.1818181818182" y="667.6363636363637" width="74.18181818181819" height="74.18181818181819" fill="#ffffff"/><rect x="890.18" y="667.64" width="37.09" height="37.09" fill="#1d9ae2"/><circle cx="945.8149999999999" cy="686.185" r="18.545" fill="#f9733e"/><rect x="445.0909090909091" y="741.8181818181819" width="74.18181818181819" height="74.18181818181819" fill="#ffffff"/><rect x="519.2727272727273" y="741.8181818181819" width="74.18181818181819" height="74.18181818181819" fill="#ffffff"/><rect x="667.6363636363637" y="741.8181818181819" width="74.18181818181819" height="74.18181818181819" fill="#ffffff"/><path d="M 667.64 778.91 A 37.09 37.09 0 0 1 704.73 816 L 667.64 816" fill="#1d9ae2"/><circle cx="723.275" cy="797.4549999999999" r="18.545" fill="#f9733e"/><rect x="890.1818181818182" y="741.8181818181819" width="74.18181818181819" height="74.18181818181819" fill="#ffffff"/><rect x="964.3636363636365" y="741.8181818181819" width="74.18181818181819" height="74.18181818181819" fill="#ffffff"/><rect x="1001.45" y="741.82" width="37.09" height="37.09" fill="#1d9ae2"/></g></svg>