<?xml version="1.0" standalone="no"?><svg xmlns:xlink="http://www.w3.org/1999/xlink" xmlns="http://www.w3.org/2000/svg" viewBox="0 0 800 1066.6666666666667" preserveAspectRatio="xMaxYMax slice"><g transform="scale(1.3071895424836601)"><rect x="0" y="0" width="632.4" height="816" fill="#ffffff"/><circle cx="316.2" cy="10.2" r="10.2" fill="#ffffff"/><circle cx="357" cy="10.2" r="10.2" fill="#f9733e"/><g transform="translate(408,0) scale(1.02) rotate(0)"><rect width="20" height="10" fill="#ffffff"/></g><g transform="translate(428.4,0) scale(1.02) rotate(0)"><rect width="20" height="10" fill="#ffffff"/></g><circle cx="479.4" cy="10.2" r="10.2" fill="#ffffff"/><circle cx="30.599999999999998" cy="30.599999999999998" r="10.2" fill="#ffffff"/><rect x="387.6" y="20.4" width="20.4" height="20.4" fill="#ffffff"/><g transform="translate(469.2,20.4) scale(1.02) rotate(0)"><rect width="20" height="10" fill="#ffffff"/></g><g transform="translate(530.4,20.4) scale(1.02) rotate(0)"><path d="M10 0L20 10L10 20L0 10L10 0Z" fill="#ffffff"/></g><g transform="translate(40.8,40.8) scale(1.02) rotate(0)"><rect width="20" height="10" fill="#f9733e"/></g><g transform="translate(81.6,40.8) scale(1.02) rotate(0)"><path d="M10 0L20 10L10 20L0 10L10 0Z" fill="#f9733e"/></g><rect x="367.2" y="40.8" width="20.4" height="20.4" fill="#ffffff"/><circle cx="479.4" cy="51" r="10.2" fill="#ffffff"/><g transform="translate(612,40.8) scale(1.02) rotate(0)"><rect width="20" height="10" fill="#1d9ae2"/></g><g transform="translate(530.4,61.2) scale(1.02) rotate(0)"><rect width="20" height="10" fill="#f9733e"/></g><g transform="translate(61.2,81.6) scale(1.02) rotate(0)"><rect width="20" height="10" fill="#1d9ae2"/></g><rect x="142.8" y="81.6" width="20.4" height="20.4" fill="#1d9ae2"/><rect x="306" y="81.6" width="20.4" height="20.4" fill="#ffffff"/><rect x="489.6" y="81.6" width="20.4" height="20.4" fill="#ffffff"/><rect x="550.8" y="81.6" width="20.4" height="20.4" fill="#ffffff"/><g transform="translate(142.8,102) scale(1.02) rotate(0)"><path d="M10 0L20 10L10 20L0 10L10 0Z" fill="#f9733e"/></g><g transform="translate(510,102) scale(1.02) rotate(0)"><rect width="20" height="10" fill="#ffffff"/></g><circle cx="91.8" cy="132.6" r="10.2" fill="#ffffff"/><circle cx="295.8" cy="132.6" r="10.2" fill="#ffffff"/><g transform="translate(367.2,122.4) scale(1.02) rotate(0)"><path d="M10 0L20 10L10 20L0 10L10 0Z" fill="#ffffff"/></g><rect x="448.8" y="122.4" width="20.4" height="20.4" fill="#ffffff"/><g transform="translate(489.6,122.4) scale(1.02) rotate(0)"><rect width="20" height="10" fill="#ffffff"/></g><rect x="530.4" y="122.4" width="20.4" height="20.4" fill="#ffffff"/><rect x="612" y="122.4" width="20.4" height="20.4" fill="#f9733e"/><g transform="translate(40.8,163.2) scale(1.02) rotate(0)"><path d="M10 0L20 10L10 20L0 10L10 0Z" fill="#ffffff"/></g><g transform="translate(142.8,163.2) scale(1.02) rotate(0)"><path d="M10 0L20 10L10 20L0 10L10 0Z" fill="#ffffff"/></g><g transform="translate(183.6,163.2) scale(1.02) rotate(0)"><rect width="20" height="10" fill="#ffffff"/></g><g transform="translate(530.4,183.6) scale(1.02) rotate(0)"><path d="M10 0L20 10L10 20L0 10L10 0Z" fill="#1d9ae2"/></g><circle cx="601.8000000000001" cy="193.79999999999998" r="10.2" fill="#1d9ae2"/><circle cx="377.4" cy="214.2" r="10.2" fill="#1d9ae2"/><g transform="translate(448.8,204) scale(1.02) rotate(0)"><path d="M10 0L20 10L10 20L0 10L10 0Z" fill="#f9733e"/></g><g transform="translate(489.6,204) scale(1.02) rotate(0)"><path d="M10 0L20 10L10 20L0 10L10 0Z" fill="#1d9ae2"/></g><circle cx="561" cy="214.2" r="10.2" fill="#1d9ae2"/><circle cx="622.2" cy="214.2" r="10.2" fill="#1d9ae2"/><g transform="translate(61.2,224.4) scale(1.02) rotate(0)"><rect width="20" height="10" fill="#ffffff"/></g><circle cx="153" cy="234.6" r="10.2" fill="#f9733e"/><g transform="translate(489.6,224.4) scale(1.02) rotate(0)"><path d="M10 0L20 10L10 20L0 10L10 0Z" fill="#ffffff"/></g><rect x="591.6" y="224.4" width="20.4" height="20.4" fill="#f9733e"/><circle cx="622.2" cy="234.6" r="10.2" fill="#f9733e"/><g transform="translate(40.8,244.8) scale(1.02) rotate(0)"><rect width="20" height="10" fill="#ffffff"/></g><g transform="translate(102,244.8) scale(1.02) rotate(0)"><rect width="20" height="10" fill="#ffffff"/></g><rect x="204" y="265.2" width="20.4" height="20.4" fill="#ffffff"/><g transform="translate(244.8,265.2) scale(1.02) rotate(0)"><rect width="20" height="10" fill="#f9733e"/></g><g transform="translate(40.8,285.6) scale(1.02) rotate(0)"><rect width="20" height="10" fill="#f9733e"/></g><circle cx="316.2" cy="295.8" r="10.2" fill="#1d9ae2"/><circle cx="581.4000000000001" cy="295.8" r="10.2" fill="#ffffff"/><circle cx="234.6" cy="316.2" r="10.2" fill="#1d9ae2"/><rect x="387.6" y="306" width="20.4" height="20.4" fill="#ffffff"/><g transform="translate(571.2,326.4) scale(1.02) rotate(0)"><path d="M10 0L20 10L10 20L0 10L10 0Z" fill="#ffffff"/></g><g transform="translate(0,346.8) scale(1.02) rotate(0)"><rect width="20" height="10" fill="#ffffff"/></g><g transform="translate(142.8,346.8) scale(1.02) rotate(0)"><rect width="20" height="10" fill="#1d9ae2"/></g><circle cx="173.39999999999998" cy="357" r="10.2" fill="#1d9ae2"/><g transform="translate(224.4,346.8) scale(1.02) rotate(0)"><rect width="20" height="10" fill="#1d9ae2"/></g><g transform="translate(448.8,346.8) scale(1.02) rotate(0)"><path d="M10 0L20 10L10 20L0 10L10 0Z" fill="#ffffff"/></g><g transform="translate(306,387.6) scale(1.02) rotate(0)"><path d="M10 0L20 10L10 20L0 10L10 0Z" fill="#ffffff"/></g><rect x="489.6" y="387.6" width="20.4" height="20.4" fill="#ffffff"/><g transform="translate(183.6,408) scale(1.02) rotate(0)"><rect width="20" height="10" fill="#ffffff"/></g><rect x="510" y="408" width="20.4" height="20.4" fill="#ffffff"/><g transform="translate(122.4,428.4) scale(1.02) rotate(0)"><rect width="20" height="10" fill="#1d9ae2"/></g><g transform="translate(510,428.4) scale(1.02) rotate(0)"><rect width="20" height="10" fill="#ffffff"/></g><g transform="translate(612,428.4) scale(1.02) rotate(0)"><path d="M10 0L20 10L10 20L0 10L10 0Z" fill="#1d9ae2"/></g><g transform="translate(244.8,448.8) scale(1.02) rotate(0)"><path d="M10 0L20 10L10 20L0 10L10 0Z" fill="#f9733e"/></g><circle cx="10.2" cy="479.4" r="10.2" fill="#ffffff"/><circle cx="51" cy="479.4" r="10.2" fill="#1d9ae2"/><g transform="translate(61.2,469.2) scale(1.02) rotate(0)"><path d="M10 0L20 10L10 20L0 10L10 0Z" fill="#ffffff"/></g><rect x="183.6" y="469.2" width="20.4" height="20.4" fill="#ffffff"/><rect x="510" y="469.2" width="20.4" height="20.4" fill="#ffffff"/><circle cx="357" cy="499.8" r="10.2" fill="#ffffff"/><rect x="367.2" y="489.6" width="20.4" height="20.4" fill="#ffffff"/><circle cx="581.4000000000001" cy="499.8" r="10.2" fill="#ffffff"/><g transform="translate(591.6,489.6) scale(1.02) rotate(0)"><rect width="20" height="10" fill="#1d9ae2"/></g><circle cx="30.599999999999998" cy="520.2" r="10.2" fill="#1d9ae2"/><rect x="142.8" y="510" width="20.4" height="20.4" fill="#ffffff"/><g transform="translate(204,510) scale(1.02) rotate(0)"><rect width="20" height="10" fill="#ffffff"/></g><g transform="translate(346.8,510) scale(1.02) rotate(0)"><path d="M10 0L20 10L10 20L0 10L10 0Z" fill="#f9733e"/></g><g transform="translate(448.8,510) scale(1.02) rotate(0)"><rect width="20" height="10" fill="#1d9ae2"/></g><rect x="591.6" y="510" width="20.4" height="20.4" fill="#1d9ae2"/><circle cx="30.599999999999998" cy="540.6" r="10.2" fill="#f9733e"/><g transform="translate(122.4,530.4) scale(1.02) rotate(0)"><path d="M10 0L20 10L10 20L0 10L10 0Z" fill="#ffffff"/></g><rect x="244.8" y="530.4" width="20.4" height="20.4" fill="#ffffff"/><g transform="translate(408,530.4) scale(1.02) rotate(0)"><rect width="20" height="10" fill="#ffffff"/></g><g transform="translate(428.4,530.4) scale(1.02) rotate(0)"><rect width="20" height="10" fill="#f9733e"/></g><circle cx="581.4000000000001" cy="540.6" r="10.2" fill="#ffffff"/><circle cx="173.39999999999998" cy="561" r="10.2" fill="#ffffff"/><g transform="translate(285.6,550.8) scale(1.02) rotate(0)"><path d="M10 0L20 10L10 20L0 10L10 0Z" fill="#ffffff"/></g><g transform="translate(163.2,571.2) scale(1.02) rotate(0)"><rect width="20" height="10" fill="#f9733e"/></g><g transform="translate(142.8,591.6) scale(1.02) rotate(0)"><path d="M10 0L20 10L10 20L0 10L10 0Z" fill="#1d9ae2"/></g><rect x="346.8" y="591.6" width="20.4" height="20.4" fill="#1d9ae2"/><g transform="translate(0,612) scale(1.02) rotate(0)"><path d="M10 0L20 10L10 20L0 10L10 0Z" fill="#1d9ae2"/></g><rect x="285.6" y="612" width="20.4" height="20.4" fill="#ffffff"/><rect x="61.2" y="632.4" width="20.4" height="20.4" fill="#ffffff"/><circle cx="255" cy="642.6" r="10.2" fill="#ffffff"/><g transform="translate(265.2,632.4) scale(1.02) rotate(0)"><rect width="20" height="10" fill="#f9733e"/></g><rect x="387.6" y="632.4" width="20.4" height="20.4" fill="#f9733e"/><g transform="translate(550.8,632.4) scale(1.02) rotate(0)"><path d="M10 0L20 10L10 20L0 10L10 0Z" fill="#ffffff"/></g><rect x="142.8" y="652.8" width="20.4" height="20.4" fill="#f9733e"/><g transform="translate(224.4,652.8) scale(1.02) rotate(0)"><path d="M10 0L20 10L10 20L0 10L10 0Z" fill="#f9733e"/></g><g transform="translate(367.2,652.8) scale(1.02) rotate(0)"><rect width="20" height="10" fill="#1d9ae2"/></g><circle cx="397.8" cy="663" r="10.2" fill="#ffffff"/><rect x="571.2" y="652.8" width="20.4" height="20.4" fill="#f9733e"/><rect x="612" y="652.8" width="20.4" height="20.4" fill="#ffffff"/><circle cx="173.39999999999998" cy="683.4000000000001" r="10.2" fill="#f9733e"/><g transform="translate(81.6,693.6) scale(1.02) rotate(0)"><path d="M10 0L20 10L10 20L0 10L10 0Z" fill="#ffffff"/></g><g transform="translate(306,693.6) scale(1.02) rotate(0)"><rect width="20" height="10" fill="#f9733e"/></g><circle cx="499.8" cy="703.8000000000001" r="10.2" fill="#ffffff"/><circle cx="71.4" cy="724.2" r="10.2" fill="#ffffff"/><rect x="81.6" y="714" width="20.4" height="20.4" fill="#1d9ae2"/><circle cx="275.4" cy="724.2" r="10.2" fill="#ffffff"/><rect x="326.4" y="714" width="20.4" height="20.4" fill="#1d9ae2"/><circle cx="357" cy="724.2" r="10.2" fill="#ffffff"/><circle cx="561" cy="724.2" r="10.2" fill="#ffffff"/><g transform="translate(142.8,734.4) scale(1.02) rotate(0)"><rect width="20" height="10" fill="#1d9ae2"/></g><circle cx="377.4" cy="744.6" r="10.2" fill="#f9733e"/><g transform="translate(428.4,734.4) scale(1.02) rotate(0)"><path d="M10 0L20 10L10 20L0 10L10 0Z" fill="#ffffff"/></g><g transform="translate(40.8,754.8) scale(1.02) rotate(0)"><path d="M10 0L20 10L10 20L0 10L10 0Z" fill="#ffffff"/></g><rect x="428.4" y="754.8" width="20.4" height="20.4" fill="#ffffff"/><circle cx="91.8" cy="785.4000000000001" r="10.2" fill="#ffffff"/><g transform="translate(244.8,775.2) scale(1.02) rotate(0)"><rect width="20" height="10" fill="#ffffff"/></g><circle cx="275.4" cy="785.4000000000001" r="10.2" fill="#1d9ae2"/><g transform="translate(428.4,775.2) scale(1.02) rotate(0)"><path d="M10 0L20 10L10 20L0 10L10 0Z" fill="#ffffff"/></g><g transform="translate(142.8,795.6) scale(1.02) rotate(0)"><path d="M10 0L20 10L10 20L0 10L10 0Z" fill="#ffffff"/></g><circle cx="193.79999999999998" cy="805.8000000000001" r="10.2" fill="#f9733e"/><rect x="224.4" y="795.6" width="20.4" height="20.4" fill="#1d9ae2"/><g transform="translate(530.4,795.6) scale(1.02) rotate(0)"><rect width="20" height="10" fill="#ffffff"/></g></g></svg>